<svg xmlns="http://www.w3.org/2000/svg" width="1200" height="760" viewBox="0 0 1200 760" fill="none">
  <rect width="1200" height="760" rx="24" fill="#EFF5FB"/>
  <rect x="88" y="100" width="530" height="560" rx="24" fill="#FFFFFF" stroke="#D0DDEA" stroke-width="4"/>
  <rect x="146" y="176" width="190" height="18" rx="9" fill="#AFC5DD"/>
  <rect x="146" y="214" width="400" height="14" rx="7" fill="#D3E1EF"/>
  <rect x="146" y="244" width="320" height="14" rx="7" fill="#D3E1EF"/>
  <rect x="146" y="308" width="120" height="230" rx="14" fill="#0F4C81"/>
  <rect x="286" y="378" width="120" height="160" rx="14" fill="#1E6FA8"/>
  <rect x="426" y="338" width="120" height="200" rx="14" fill="#E58E26"/>
  <rect x="674" y="138" width="434" height="484" rx="28" fill="#0E416D"/>
  <circle cx="760" cy="244" r="34" fill="#FFFFFF" fill-opacity="0.18"/>
  <rect x="820" y="224" width="224" height="16" rx="8" fill="#9FC6E4"/>
  <rect x="820" y="258" width="170" height="12" rx="6" fill="#B8D5EC"/>
  <rect x="744" y="336" width="300" height="204" rx="16" fill="#F8FBFF"/>
  <rect x="780" y="374" width="228" height="14" rx="7" fill="#C6DCEF"/>
  <rect x="780" y="406" width="192" height="14" rx="7" fill="#C6DCEF"/>
  <rect x="780" y="460" width="92" height="54" rx="10" fill="#1E6FA8"/>
</svg>
