<svg xmlns="http://www.w3.org/2000/svg" width="1200" height="760" viewBox="0 0 1200 760" fill="none">
  <rect width="1200" height="760" rx="24" fill="#F4F7FC"/>
  <rect x="90" y="90" width="1020" height="580" rx="30" fill="#FFFFFF" stroke="#D5E0EC" stroke-width="4"/>
  <rect x="150" y="156" width="900" height="64" rx="14" fill="#EAF2FB"/>
  <rect x="182" y="180" width="280" height="16" rx="8" fill="#9AB8D5"/>
  <circle cx="192" cy="300" r="26" fill="#0F4C81"/>
  <rect x="240" y="286" width="502" height="20" rx="10" fill="#C5D9EB"/>
  <rect x="240" y="320" width="380" height="13" rx="6.5" fill="#D8E6F2"/>
  <circle cx="192" cy="406" r="26" fill="#1E6FA8"/>
  <rect x="240" y="392" width="550" height="20" rx="10" fill="#C5D9EB"/>
  <rect x="240" y="426" width="420" height="13" rx="6.5" fill="#D8E6F2"/>
  <circle cx="192" cy="512" r="26" fill="#E58E26"/>
  <rect x="240" y="498" width="510" height="20" rx="10" fill="#C5D9EB"/>
  <rect x="240" y="532" width="350" height="13" rx="6.5" fill="#D8E6F2"/>
  <rect x="842" y="270" width="210" height="290" rx="18" fill="#F2F8FE"/>
  <rect x="878" y="324" width="136" height="14" rx="7" fill="#A4C2DE"/>
  <rect x="878" y="360" width="136" height="14" rx="7" fill="#A4C2DE"/>
  <rect x="878" y="396" width="136" height="14" rx="7" fill="#A4C2DE"/>
  <rect x="878" y="432" width="136" height="14" rx="7" fill="#A4C2DE"/>
</svg>
